<?xml version="1.0"?>
<svg xmlns:rdf="http://www.w3.org/1999/02/22-rdf-syntax-ns#" xmlns="http://www.w3.org/2000/svg" xmlns:cc="http://creativecommons.org/ns#" xmlns:xlink="http://www.w3.org/1999/xlink" xmlns:dc="http://purl.org/dc/elements/1.1/" xmlns:svg="http://www.w3.org/2000/svg" id="svg2" viewBox="0 0 575.27 722.15" version="1.0">
  <defs id="defs4">
    <filter id="filter7462">
      <feGaussianBlur id="feGaussianBlur7464" stdDeviation="7.4557397"/>
    </filter>
    <linearGradient id="linearGradient9873" y2="101.38" gradientUnits="userSpaceOnUse" y1="558.52" x2="430.55" x1="23.914">
      <stop id="stop5776" stop-color="#fc0" offset="0"/>
      <stop id="stop5778" stop-color="#fd5" offset="1"/>
    </linearGradient>
  </defs>
  <g id="layer1" transform="translate(-9.7504 -252.21)">
    <g id="g9825" transform="matrix(.78457 0 0 .78457 2.1005 209.9)">
      <rect id="rect7420" opacity=".52227" height="862.67" filter="url(#filter7462)" width="628.48" y="76.843" x="72.857"/>
      <path id="path4647" d="m129.17 155.76h524.28m-524.28 36h524.28" fill-rule="evenodd" stroke="#59f" stroke-width="2" fill="#59f"/>
      <rect id="rect2647" stroke-linejoin="round" height="862.67" width="628.48" stroke="#999" stroke-linecap="round" y="66.843" x="62.857" fill="#fff"/>
      <use id="use5714" xlink:href="#path4647" height="1052.3622" width="744.09448" y="0" x="0"/>
      <use id="use5716" xlink:href="#path4647" transform="translate(4.5929e-7 72)" height="1052.3622" width="744.09448" y="0" x="0"/>
      <use id="use5718" xlink:href="#path4647" transform="translate(4.5929e-7 144)" height="1052.3622" width="744.09448" y="0" x="0"/>
      <use id="use5720" xlink:href="#path4647" transform="translate(4.5929e-7 216)" height="1052.3622" width="744.09448" y="0" x="0"/>
      <use id="use5722" xlink:href="#path4647" transform="translate(4.5929e-7 288)" height="1052.3622" width="744.09448" y="0" x="0"/>
      <use id="use5724" xlink:href="#path4647" transform="translate(4.5929e-7 360)" height="1052.3622" width="744.09448" y="0" x="0"/>
      <use id="use5726" xlink:href="#path4647" transform="translate(4.5929e-7 432)" height="1052.3622" width="744.09448" y="0" x="0"/>
      <use id="use5728" xlink:href="#path4647" transform="translate(4.5929e-7 504)" height="1052.3622" width="744.09448" y="0" x="0"/>
      <use id="use5730" xlink:href="#path4647" transform="translate(4.5929e-7 576)" height="1052.3622" width="744.09448" y="0" x="0"/>
      <use id="use5732" xlink:href="#path4647" transform="translate(4.5929e-7 648)" height="1052.3622" width="744.09448" y="0" x="0"/>
      <path id="path5734" d="m177.93 99.775v799.28" fill-rule="evenodd" stroke="#d40000" stroke-width="1px" fill="#d40000"/>
      <path id="path5736" d="m629.55 99.775v799.28" fill-rule="evenodd" stroke="#d40000" stroke-width="1px" fill="#d40000"/>
      <rect id="rect5768" stroke-linejoin="round" opacity=".93927" transform="rotate(6.7196)" height="395.11" width="404.61" stroke="#d4aa00" stroke-linecap="round" y="56.994" x="88.561" stroke-width="2" fill="url(#linearGradient9873)"/>
      <path id="path5789" stroke-linejoin="round" d="m63.888 114.85v3.93l56.472 13.13c5.14 1.19 8.33 3.11 10 5.03 1.66 1.92 1.94 3.75 1.34 5.53-1.18 3.54-6.78 7.15-15.69 5.85l-52.122-11.38v3.91l51.312 11.22c0.04 0.01 0.09 0.02 0.13 0.03 10.26 1.55 18.08-2.41 20.09-8.41 1-3 0.31-6.44-2.09-9.22-2.41-2.78-6.4-5-12.1-6.31l-57.342-13.31z" stroke="#3771c8" stroke-linecap="round" stroke-width="2" fill="#acf"/>
      <path id="path5791" stroke-linejoin="round" d="m62.284 140.31v-3.9l-19.094-4.19c-0.685-0.16-1.401 0.05-1.875 0.56s-0.623 1.25-0.406 1.91 0.78 1.14 1.468 1.28l19.907 4.34zm-11.563-37.97c-0.686-0.15-1.404 0.09-1.875 0.6s-0.629 1.21-0.406 1.87 0.778 1.15 1.469 1.28c12.464 2.65 75.251 17.3 107.03 24.16 7.57 1.63 11.57 8.6 13.31 11.75 1.75 3.15 1.46 6.78-0.4 10.37-3.73 7.19-13.88 15.35-23.91 13.22l-106.25-24.56c-13.655-2.9-17.915-11.09-16.438-17.62 1.478-6.54 8.911-12.16 22.094-9.1l16.938 3.94v-3.94l-16.094-3.75c-14.617-3.4-24.762 3.18-26.75 11.97s4.383 19.05 19.437 22.25l106.25 24.56c12.02 2.56 23.6-6.39 28.18-15.22 2.3-4.41 2.8-9.5 0.35-13.93s-7.65-11.91-15.91-13.69c-31.54-6.81-93.925-21.37-107.03-24.16z" stroke="#3771c8" stroke-linecap="round" stroke-width="2" fill="#acf"/>
      <path id="text5770" transform="rotate(6.4375)" fill="#3771c8" d="m172.37 324.6c-2.26 2.57-6.47 3.86-12.64 3.86-1.02 0-2.45-0.03-4.29-0.09-1.85-0.1-3.13-0.15-3.87-0.15-4.64 0-8.26 0.75-10.87 2.25v18.74c8.93-2.99 16.04-4.48 21.32-4.48 5.03 0 9.84 1.11 14.46 3.34v2.34c-11.74 0.44-24.44 3.76-38.12 9.97-0.57 2.03-1 5.16-1.29 9.39-0.25 3.98-0.7 6.92-1.33 8.83-1.02 3.05-2.88 5.56-5.58 7.54l-4.58-2.63c6.17-21.21 9.25-41.23 9.25-60.06 0-1.75 0.59-2.92 1.77-3.53 2.51 0.51 6.5 0.78 11.97 0.81 6.36 0.04 10.72 0.18 13.07 0.43 4.71 0.54 8.28 1.69 10.73 3.44m59.49 28.43c0 1.62-0.75 3.39-2.24 5.29-8.94 5.28-18.35 7.92-28.24 7.92-1.82 0-3.68-0.09-5.58-0.28-1.63 1.14-2.44 2.7-2.44 4.67 0 2.04 0.83 3.67 2.48 4.91 1.47 1.15 3.25 1.72 5.35 1.72 2.95 0 7.61-1.29 13.97-3.86 6.36-2.58 10.89-3.87 13.6-3.87 1.56 0 2.83 0.37 3.81 1.1-10.81 9.51-20.65 14.26-29.52 14.26-5 0-8.91-1.16-11.74-3.48-3.05-2.51-4.58-6.2-4.58-11.06 0-0.74 0.03-1.8 0.1-3.2 0.06-1.43 0.09-2.51 0.09-3.24 0-2.23-0.32-3.9-0.95-5.01 2.8-0.48 6.06-2.44 9.78-5.87 3.97-3.66 6.96-5.8 8.97-6.44 3.3-1.05 7.01-1.57 11.11-1.57 3.34 0 6.57 0.55 9.68 1.66 4.23 1.53 6.35 3.65 6.35 6.35m-6.92 0c-2.35-1.18-4.96-1.77-7.82-1.77-2.64 0-5.36 0.53-8.16 1.58-3.15 1.18-5.41 2.7-6.77 4.58-0.73 1.02-1.1 1.81-1.1 2.38 0 1.08 0.97 1.62 2.91 1.62 2.96 0 6.65-0.89 11.07-2.67s7.71-3.69 9.87-5.72m-3.05-44.65c-0.54 1.91-1.08 3.8-1.62 5.68-0.7 1.97-1.78 3.64-3.25 5-2.26 1.88-4.51 3.76-6.77 5.63-2.48 2.36-3.72 4.9-3.72 7.64 0 1.3 0.27 2.76 0.81 4.38-0.22 0.16-0.94 0.91-2.15 2.25-0.92 1.05-1.73 1.57-2.43 1.57-0.6 0-1.26-0.32-1.96-0.95-1.24-2.42-1.86-4.74-1.86-6.97 0-1.97 0.29-3.46 0.86-4.48 0.99-1.75 4.15-5.73 9.5-11.93 3.21-3.72 7.4-6.33 12.59-7.82m52.04 48.75c-1.84 2.29-3.77 3.44-5.77 3.44-0.73 0-1.38-0.16-1.96-0.48-0.76-1.3-1.86-2.47-3.29-3.48-1.55-1.08-3.03-1.63-4.43-1.63-4.36 0-8.03 4.28-11.02 12.84-2.42 6.83-3.63 13.05-3.63 18.65-0.6 0.25-1.16 0.38-1.67 0.38-2.61 0-4.2-1.89-4.77-5.68-0.16-2.48-0.41-6.05-0.76-10.73-0.54-4.83-0.81-8.43-0.81-10.78 0-4.04 0.52-7.62 1.57-10.73 3.5 1.14 5.25 2.32 5.25 3.53 0 0.44-0.06 1.09-0.19 1.95s-0.19 1.51-0.19 1.96c0 1.05 0.32 1.89 0.95 2.53 4.45-4.42 6.87-6.79 7.25-7.11 3.18-2.61 6.2-3.91 9.07-3.91 2.76 0 5.45 1.03 8.06 3.1 0.22 0.19 2.34 2.24 6.34 6.15m27.53-15.22c-0.86 1.18-1.85 1.77-2.96 1.77-1.05 0-2.02-0.59-2.91-1.77-0.57 0.13-1.81 0.99-3.72 2.58-1.78 1.53-3.09 2.29-3.91 2.29-1.75 0-2.63-1.92-2.63-5.77 0-3.63 1.85-5.68 5.54-6.16 2.16 0.7 4.34 1.42 6.53 2.15 2.39 1.05 3.74 2.69 4.06 4.91m-15.74 13.89c-0.16 2.09-1.12 5.37-2.87 9.82-1.65 4.2-2.48 7.46-2.48 9.78 0 2.23 1.16 3.34 3.49 3.34 1.74 0 4.21-0.52 7.39-1.57 2.45-0.89 4.9-1.77 7.35-2.63 0.6 0.77 0.9 1.61 0.9 2.53 0 1.11-0.49 2.42-1.48 3.91-6.33 3.79-11.86 5.68-16.6 5.68-4.9 0-7.34-2.61-7.34-7.82 0-3.47 1.03-7.94 3.1-13.41 2.54-6.68 4.02-11.07 4.43-13.16 1.05 0.38 2.42 1.55 4.11 3.53m52.42-10.88c0 3.5-1.05 8.44-3.15 14.84-2.16 6.64-3.32 11.6-3.48 14.88 0.83 1.24 1.92 1.95 3.29 2.15 1.97 0.22 3.21 0.47 3.72 0.76 0.58 1.11 0.86 2.19 0.86 3.24 0 2.2-2.05 5.03-6.15 8.49-6.17 0.45-9.62 0.67-10.35 0.67-4.3 0-8.02-0.84-11.17-2.53-3.88-2.13-5.82-5.18-5.82-9.16 0-3.02 1.42-5.55 4.25-7.58 2.54-1.85 5.39-2.77 8.54-2.77 2.29 0 4.4 0.48 6.34 1.43 3.09-5.08 4.92-11.27 5.49-18.55-2.51 0.47-6.47 2.19-11.88 5.15-4.93 2.64-8.98 4.05-12.16 4.24-2.13-1.71-3.2-3.97-3.2-6.77 0-0.7 0.1-1.38 0.29-2.05 2.25-0.99 7.5-3.05 15.74-6.2 8.93-3.4 13.75-5.11 14.45-5.11 2.93 0 4.39 1.63 4.39 4.87m-11.16 35.59c-1.18-0.54-2.21-2.12-3.1-4.73-1.31-0.57-2.74-0.86-4.3-0.86-3.56 0-5.27 1.4-5.15 4.2l0.05 0.77c1.56 1.65 3.82 2.48 6.77 2.48 2.45 0 4.36-0.62 5.73-1.86m60.92-28.24c0.06 0.44 0.09 0.87 0.09 1.28 0 2.87-1.43 4.3-4.29 4.3-1.31 0-3.23-0.32-5.77-0.96-2.52-0.66-4.41-1-5.68-1-1.62 0-3.15 0.48-4.58 1.43-1.62 1.08-2.43 2.39-2.43 3.91 0 1.56 1.73 3.47 5.2 5.73 3.24 2.07 6.48 4.13 9.73 6.2 3.46 2.61 5.2 5.09 5.2 7.44 0 2.07-0.8 3.67-2.39 4.82-1.4 1.02-3.15 1.53-5.25 1.53-2.44 0-6.1-0.48-10.97-1.44-4.86-0.95-8.54-1.43-11.02-1.43-1.68 0-3.24 0.15-4.67 0.43-0.73-0.28-1.64-1.32-2.72-3.1-1.3-2.19-2.1-3.45-2.39-3.77 1.75-0.38 3.74-0.57 5.97-0.57 3.56 0 8.25 0.61 14.07 1.81 5.82 1.21 9.14 1.82 9.97 1.82 1.18 0 1.76-0.31 1.76-0.91 0-1.49-1.74-3.28-5.24-5.34-6.24-3.66-9.51-5.6-9.83-5.82-3.5-2.58-5.25-5.23-5.25-7.97 0-3.94 2.02-7.28 6.06-10.02 3.6-2.44 7.46-3.67 11.59-3.67 5.22 0 9.5 1.77 12.84 5.3"/>
      <path id="path5782" stroke-linejoin="round" d="m83.59 656.77c-1.988 8.79 4.398 19.06 19.45 22.26l106.24 22.57c12.03 2.56 23.61-4.39 28.19-13.22 2.29-4.42 2.8-9.52 0.35-13.95-2.46-4.43-7.66-7.89-15.92-9.67-31.54-6.82-93.92-23.38-107.03-26.16-0.68-0.16-1.4 0.06-1.87 0.57s-0.62 1.24-0.4 1.89c0.22 0.66 0.79 1.15 1.48 1.29 12.46 2.65 75.24 19.29 107.02 26.16 7.57 1.63 11.56 4.59 13.31 7.74 1.74 3.15 1.45 6.77-0.41 10.36-3.73 7.19-13.89 13.37-23.92 11.24l-106.24-22.58c-13.656-2.9-17.921-11.09-16.444-17.63 1.478-6.54 8.908-12.16 22.094-9.09l73.42 17.07c5.14 1.18 8.34 3.11 10 5.03s1.93 3.75 1.33 5.53c-1.18 3.54-6.77 7.15-15.67 5.84l-71.22-15.55c-0.69-0.15-1.4 0.06-1.88 0.57-0.47 0.5-0.63 1.22-0.42 1.88 0.22 0.66 0.78 1.16 1.47 1.3l71.23 15.55 0.12 0.03c10.26 1.55 18.08-2.39 20.09-8.39 1-3 0.31-6.46-2.09-9.24-2.41-2.78-6.39-4.97-12.09-6.29l-73.42-17.07c-14.618-3.4-24.782 3.17-26.77 11.96z" stroke="#3771c8" stroke-linecap="round" stroke-width="2" fill="#acf"/>
      <use id="use7370" xlink:href="#path5782" transform="matrix(.47481 .88009 -.88009 .47481 905.37 137.55)" height="1052.3622" width="744.09448" stroke="#7900ff" y="0" x="0" fill="#7900ff"/>
      <use id="use7372" xlink:href="#path5782" transform="matrix(.039353 -.99923 .99923 .039353 -95.388 464.88)" height="1052.3622" width="744.09448" stroke="#ff00f6" y="0" x="0" fill="#ff00f6"/>
      <use id="use7374" xlink:href="#path5782" transform="matrix(.89730 .44143 -.44143 .89730 590.83 184.94)" height="1052.3622" width="744.09448" stroke="#ff0034" y="0" x="0" fill="#ff0034"/>
      <use id="use7376" xlink:href="#path5782" transform="matrix(.68177 -.73157 .73157 .68177 -424.83 497.26)" height="1052.3622" width="744.09448" stroke="#a600ff" y="0" x="0" fill="#a600ff"/>
      <use id="use7378" xlink:href="#path5782" transform="matrix(.74530 .66673 -.66673 .74530 552.76 261.09)" height="1052.3622" width="744.09448" stroke="#dc00ff" y="0" x="0" fill="#dc00ff"/>
      <use id="use7380" xlink:href="#path5782" transform="matrix(.20478 -.97881 .97881 .20478 -339.92 718.22)" height="1052.3622" width="744.09448" stroke="#9c02fd" y="0" x="0" fill="#9c02fd"/>
      <use id="use7382" xlink:href="#path5782" transform="matrix(.25307 .96745 -.96745 .25307 881.03 409.33)" height="1052.3622" width="744.09448" stroke="#0027ff" y="0" x="0" fill="#0027ff"/>
      <use id="use7384" xlink:href="#path5782" transform="matrix(.27175 .96237 -.96237 .27175 914.1 435.65)" height="1052.3622" width="744.09448" stroke="#ffe200" y="0" x="0" fill="#ffe200"/>
      <use id="use7386" xlink:href="#path5782" transform="matrix(.99776 .066961 -.066961 .99776 225.2 153.74)" height="1052.3622" width="744.09448" stroke="#5dff00" y="0" x="0" fill="#5dff00"/>
      <use id="use7388" xlink:href="#path5782" transform="matrix(.81417 .58062 -.58062 .81417 624.37 204.81)" height="1052.3622" width="744.09448" stroke="#ffc100" y="0" x="0" fill="#ffc100"/>
      <use id="use7390" xlink:href="#path5782" transform="matrix(.97330 -.22955 .22955 .97330 132.45 56.546)" height="1052.3622" width="744.09448" stroke="#7fdf20" y="0" x="0" fill="#7fdf20"/>
      <use id="use7392" xlink:href="#path5782" transform="matrix(.99992 -.012595 .012595 .99992 258.84 63.506)" height="1052.3622" width="744.09448" stroke="#b204fb" y="0" x="0" fill="#b204fb"/>
      <use id="use7394" xlink:href="#path5782" transform="matrix(.58038 -.81434 .81434 .58038 -237.72 527.53)" height="1052.3622" width="744.09448" stroke="#ff0004" y="0" x="0" fill="#ff0004"/>
      <use id="use7396" xlink:href="#path5782" transform="matrix(.93645 .35079 -.35079 .93645 508.19 119.72)" height="1052.3622" width="744.09448" stroke="#b200ff" y="0" x="0" fill="#b200ff"/>
      <use id="use7398" xlink:href="#path5782" transform="matrix(.63751 .77044 -.77044 .63751 864.73 301.41)" height="1052.3622" width="744.09448" stroke="#04ff00" y="0" x="0" fill="#04ff00"/>
      <use id="use7400" xlink:href="#path5782" transform="matrix(.37276 -.92793 .92793 .37276 -174.01 509.22)" height="1052.3622" width="744.09448" stroke="#4c00ff" y="0" x="0" fill="#4c00ff"/>
      <use id="use7402" xlink:href="#path5782" transform="matrix(.99006 -.14062 .14062 .99006 244.8 97.718)" height="1052.3622" width="744.09448" stroke="#6f00ff" y="0" x="0" fill="#6f00ff"/>
      <use id="use7404" xlink:href="#path5782" transform="matrix(.96563 -.25993 .25993 .96563 210.61 193.85)" height="1052.3622" width="744.09448" stroke="#ff002b" y="0" x="0" fill="#ff002b"/>
      <use id="use7406" xlink:href="#path5782" transform="matrix(.020247 .99980 -.99980 .020247 1158.4 645.97)" height="1052.3622" width="744.09448" stroke="#ffdb00" y="0" x="0" fill="#ffdb00"/>
      <use id="use7408" xlink:href="#path5782" transform="matrix(.57172 .82045 -.82045 .57172 989.52 363.28)" height="1052.3622" width="744.09448" stroke="#2aff00" y="0" x="0" fill="#2aff00"/>
      <use id="use7410" xlink:href="#path5782" transform="matrix(.96807 .25069 -.25069 .96807 614.86 -71.821)" height="1052.3622" width="744.09448" stroke="#006aff" y="0" x="0" fill="#006aff"/>
      <use id="use7412" xlink:href="#path5782" transform="matrix(.61862 -.78569 .78569 .61862 -14.968 434.27)" height="1052.3622" width="744.09448" stroke="#c4ff00" y="0" x="0" fill="#c4ff00"/>
      <use id="use7414" xlink:href="#path5782" transform="matrix(.81430 .58044 -.58044 .81430 928.05 145.41)" height="1052.3622" width="744.09448" stroke="#1400ff" y="0" x="0" fill="#1400ff"/>
      <use id="use7416" xlink:href="#path5782" transform="matrix(.99999 .0045594 -.0045594 .99999 429.51 171.95)" height="1052.3622" width="744.09448" stroke="#00fff3" y="0" x="0" fill="#00fff3"/>
      <use id="use7418" xlink:href="#path5782" transform="matrix(.42542 .905 -.905 .42542 1208 436.29)" height="1052.3622" width="744.09448" stroke="#ff004c" y="0" x="0" fill="#ff004c"/>
      <rect id="rect9823" opacity="0" height="920.44" width="733.23" y="53.921" x="9.7504" stroke-width="2"/>
    </g>
  </g>
  <metadata>
    <rdf:RDF>
      <cc:Work>
        <dc:format>image/svg+xml</dc:format>
        <dc:type rdf:resource="http://purl.org/dc/dcmitype/StillImage"/>
        <cc:license rdf:resource="http://creativecommons.org/licenses/publicdomain/"/>
        <dc:publisher>
          <cc:Agent rdf:about="http://openclipart.org/">
            <dc:title>Openclipart</dc:title>
          </cc:Agent>
        </dc:publisher>
        <dc:title>Paper Clip</dc:title>
        <dc:date>2009-02-20T12:40:52</dc:date>
        <dc:description>clip art, clipart, education, education, image, line art, line art, media, office, office, png, public domain, svg, tool, tool, </dc:description>
        <dc:source>http://openclipart.org/detail/21727/paper-clip-by-placidoaps-21727</dc:source>
        <dc:creator>
          <cc:Agent>
            <dc:title>placidoaps</dc:title>
          </cc:Agent>
        </dc:creator>
        <dc:subject>
          <rdf:Bag>
            <rdf:li>clip art</rdf:li>
            <rdf:li>clipart</rdf:li>
            <rdf:li>education</rdf:li>
            <rdf:li>image</rdf:li>
            <rdf:li>line art</rdf:li>
            <rdf:li>media</rdf:li>
            <rdf:li>office</rdf:li>
            <rdf:li>png</rdf:li>
            <rdf:li>public domain</rdf:li>
            <rdf:li>svg</rdf:li>
            <rdf:li>tool</rdf:li>
          </rdf:Bag>
        </dc:subject>
      </cc:Work>
      <cc:License rdf:about="http://creativecommons.org/licenses/publicdomain/">
        <cc:permits rdf:resource="http://creativecommons.org/ns#Reproduction"/>
        <cc:permits rdf:resource="http://creativecommons.org/ns#Distribution"/>
        <cc:permits rdf:resource="http://creativecommons.org/ns#DerivativeWorks"/>
      </cc:License>
    </rdf:RDF>
  </metadata>
</svg>
